<svg xmlns="http://www.w3.org/2000/svg" xmlns:xlink="http://www.w3.org/1999/xlink" width="71.315" height="71.315" viewBox="0 0 71.315 71.315">
  <defs>
    <clipPath id="clip-path">
      <path id="Path_15" data-name="Path 15" d="M0,0H71.315V71.315H0Z" fill="none" clip-rule="evenodd"/>
    </clipPath>
  </defs>
  <g id="Group_14" data-name="Group 14" transform="translate(0 32)">
    <g id="Group_13" data-name="Group 13" transform="translate(0 -32)">
      <g id="Group_11" data-name="Group 11" clip-path="url(#clip-path)">
        <g id="Group_10" data-name="Group 10">
          <path id="Path_14" data-name="Path 14" d="M0,0H71.315V71.315H0Z" fill="none" stroke="rgba(112,112,112,0.01)" stroke-width="0"/>
        </g>
      </g>
      <g id="Group_12" data-name="Group 12" clip-path="url(#clip-path)">
        <path id="Path_16" data-name="Path 16" d="M30.743,4A26.743,26.743,0,1,0,57.486,30.743a25.91,25.91,0,0,0-.209-3.195,5.552,5.552,0,0,1-8.349-2.69A8.9,8.9,0,0,1,35.2,17.372,8.813,8.813,0,0,1,36.445,12.9a.672.672,0,0,1-.131.017,5.566,5.566,0,0,1-5.571-5.571,5.489,5.489,0,0,1,1.106-3.3C31.483,4.026,31.117,4,30.743,4ZM47.458,4A3.343,3.343,0,1,0,50.8,7.343,3.344,3.344,0,0,0,47.458,4ZM26.4,8.875a10.1,10.1,0,0,0,4.448,6.877,12.539,12.539,0,0,0-.1,1.619A13.386,13.386,0,0,0,44.115,30.743a12.931,12.931,0,0,0,3.273-.418A10.066,10.066,0,0,0,52.925,32.9,22.287,22.287,0,1,1,26.4,8.875Zm17.716,6.268a2.229,2.229,0,1,0,2.229,2.229A2.233,2.233,0,0,0,44.115,15.143ZM26.286,17.372A2.229,2.229,0,1,0,28.515,19.6,2.233,2.233,0,0,0,26.286,17.372Zm28.972,0A2.229,2.229,0,1,0,57.486,19.6,2.233,2.233,0,0,0,55.258,17.372ZM19.6,24.057a4.457,4.457,0,1,0,4.457,4.457A4.455,4.455,0,0,0,19.6,24.057Zm11.143,4.457a2.229,2.229,0,1,0,2.229,2.229A2.233,2.233,0,0,0,30.743,28.515Zm-7.8,8.914a3.343,3.343,0,1,0,3.343,3.343A3.344,3.344,0,0,0,22.943,37.429Zm15.6,2.229A3.343,3.343,0,1,0,41.886,43,3.344,3.344,0,0,0,38.543,39.657Z" transform="translate(4.914 4.914)" fill="#fff"/>
      </g>
    </g>
  </g>
</svg>
