<svg xmlns="http://www.w3.org/2000/svg" width="641.586" height="980.886" viewBox="0 0 641.586 980.886"><defs><style>.a{opacity:0.044;}.b{fill:#fff;fill-rule:evenodd;}</style></defs><g class="a" transform="translate(-38.873 -41.213)"><g transform="translate(38.873 41.213)"><g transform="translate(0 0)"><g transform="translate(0)"><g transform="translate(0 371.126)"><path class="b" d="M132,327.992a.668.668,0,0,1,1.044-.806c12.766,11.207,19.449,29.206,20.851,45.842,1.485,17.641-.62,35.907-1.425,53.541-.9,19.642-1.7,39.292-2.793,58.925-1.11,19.919-2.305,39.832-3.33,59.755l-2.305,44.817h0c-.245,4.776.286,10.65-1.546,15.108-2.839,6.91-11.274,5.84-13.046.065l-.055-.19-.162.125c-1.564-5.2-.393-11.386-.128-16.768l2.415-48.966h0c1.706-34.611,3.228-69.222,5.061-103.826l.623-11.534q1.285-23.291,2.041-46.539l.171-5.176C139.913,356.779,139.515,342.065,132,327.992ZM441.462,40.67c7.112-.676,12.483,1.684,18.939,4.169,2.813,1.082,5.476,2.332,8.175,3.626,3.378,1.62,5.551,4.486,7.631,7.515l1.112,1.632c8.663,12.7,14.49,27.345,21.065,41.168,7.691,16.17,15.46,32.306,22.987,48.553l3.715,8q2.785,6,5.532,12.025l3.152,6.992c3.166,7.091,6,14.593,1.492,21.909-4.2,6.8-11.635,12.068-17.524,17.327q-7.37,6.583-14.744,13.163c10.162,10.18,16.983,23,20.993,36.743,5.7-2.374,12.651-2.83,18.542-3.857,8.246-1.438,9.256,11.05,1.474,10.9-5.747-.113-12.49.475-18.386-.736a115.3,115.3,0,0,1,2.241,13.7c2.477,24.1-2.936,48.337-8.583,71.653l-.464,1.914c-6.132,25.237-11.946,50.539-17.147,75.985q-7.819,38.25-14.065,76.8c-4.237,26.152-7.235,52.447-10.457,78.737-.488,3.979-2.99,7.389-7.385,7.389-3.661,0-7.846-3.419-7.386-7.389,3.325-28.629,8.04-57.109,12.724-85.542,8.068-48.966,18.223-97.506,29.906-145.728l2.041-8.4c5.256-21.779,10.024-44.221,7.388-66.686-2.148-18.293-9.793-37.8-24.9-49.16l-.46-.342c-3.53-2.59-4.888-7.542-1.411-10.952q3.318-3.256,6.643-6.5l13.3-12.992,2.682-2.624c2.236-2.184,4.483-4.355,6.8-6.459,1.4-1.273,5.2-3.7,5.476-5.793.18-1.366-1.437-3.766-2.092-5.025l-3-6.063h0c-1.7-3.457-3.357-6.939-5.022-10.416-3.45-7.2-6.949-14.383-10.324-21.621l-20.276-43.461h0c-5.72-12.261-10.815-25.206-18.293-36.541l-1.474-2.209a25.215,25.215,0,0,1-3.1-5.927,24.125,24.125,0,0,0-3.069-6.461c-3.239-4.384-9.43-6.871-14.609-7.789C440.547,41.766,440.819,40.731,441.462,40.67ZM285.521,29.255a.393.393,0,0,1,.1.768,44.756,44.756,0,0,0-17.093,9.292,26.484,26.484,0,0,0-6.117,7.293,12.432,12.432,0,0,0-1.079,3.4l-.072.4a12.055,12.055,0,0,1-1.987,5.034l-.186.29c-6.192,9.565-10.531,20.189-14.5,30.827l-8.64,23.195h0l-8.634,23.2q-4.173,11.211-8.348,22.424c-1.537,4.127-3.118,8.236-4.7,12.346-.684,1.781-1.419,3.548-2.044,5.35a18.286,18.286,0,0,1-.564,2.09l.07.123h0c1.742,2.931,6.386,5.379,9.019,7.508l9.065,7.332h0c6.463,5.228,13.093,10.31,19.362,15.772,3.938,3.429,1.488,9.571-2.9,11-7.36,2.4-14.57,5.269-21.82,7.983-2.928,1.1-5.978,2.05-8.872,3.258l-1.762.762c-.688.31-.357.307-.33,1.577a29.13,29.13,0,0,0,.622,4.031q3.663,22.155,7.762,44.234,14.5,78.076,34.377,154.994c6.651,25.893,13.784,51.658,20.581,77.513,6.78,25.785,15.7,51.2,24.22,76.456,2.4,7.122-8.885,10.188-11.23,3.1-9.817-29.7-18.8-59.663-28.073-89.533-16.478-53.075-29.463-107.3-40.948-161.662q-8.538-40.412-15.614-81.116-1.339-7.7-2.626-15.417l-1.25-7.564c-.857-5.391-1.345-11.007,2.844-15.273,4.09-4.164,11.112-5.64,16.494-7.593l.391-.144c3.425-1.279,6.874-2.51,10.311-3.78-5.062-3.986-10.062-8.061-15.111-12.045-4.073-3.214-8.211-6.363-12.226-9.651-3.31-2.712-6.01-6.194-6.355-10.6-.352-4.507,1.579-8.69,3.136-12.824l.149-.4c1.529-4.127,3.062-8.252,4.634-12.364l9.729-25.453h0c6.182-16.174,12.1-32.478,18.607-48.526a171.983,171.983,0,0,1,8.689-18.6c1.6-2.895,3.311-5.728,5.172-8.46a17.3,17.3,0,0,1,7.211-6.248c5.168-2.7,9.224-7.235,14.413-10.021A34.085,34.085,0,0,1,285.521,29.255ZM302.3.4a.393.393,0,0,1,.728.2c.135,8.038-1.774,16.252-2.949,24.2-1.18,7.976-1.558,16.4-3.265,24.287a6.164,6.164,0,0,1-.207,1.086l-.082.27h0a7.155,7.155,0,0,1-4.892,4.67c.723,4.007,1.4,8.02,1.977,12.055.984,6.935,1.882,13.881,2.765,20.828l1.057,8.338q1.5,11.787,2.928,23.581a67.227,67.227,0,0,0,7.48,2.593,100.247,100.247,0,0,0,17.95,2.96c12.343,1.211,24.78,1.772,37.167,2.46l2.654.15a262.1,262.1,0,0,0,41.818-.49A144.945,144.945,0,0,0,427.865,124c3.413-.857,6.73-2.136,10.137-2.973a12.213,12.213,0,0,0,3.271-1.6,3.56,3.56,0,0,1,2.127-1.3l.249-.043h0l.246-.036.085-.038-.007.027a7.351,7.351,0,0,1,1.983-.008c.248-6.13.518-12.26.855-18.388.906-16.46,3.408-33.63.068-49.946a.43.43,0,0,1,.829-.229c6.553,17.273,5.817,36.16,6.147,54.34.323,17.778.128,35.569.039,53.351a8.939,8.939,0,0,1,3.308,2.308c1.8,2.06,2.313,5.641,0,7.629a10.387,10.387,0,0,1-3.364,1.918q-.1,23.172-.328,46.347c2.937,2.269,3.211,7.658-.111,9.9-.553,50.03-1.461,100.061-2.215,150.083l-1.579,104.948h0c-.21,13.983-.559,27.965-.684,41.946l.1.039h0l.349.162c.588.276,1.464.723,1.646,1.181a.582.582,0,0,1,.054.264,5.007,5.007,0,0,1,2.744,1.374c2.039,1.938,1.625,4.86,0,6.834l-.434.528h0a5.026,5.026,0,0,1-4.507,1.454c.016,8.726.072,17.454.044,26.18-.009,2.665-.049,5.33-.1,8l-.11,6.391c-.073,3.647-.4,8.281-4.13,9.92-4.213,1.849-7.99.334-9.7-3.946a6.215,6.215,0,0,1-.194-3.385c-.052-1.722-.322-3.718-.288-5.316l.139-6.663h0c.022-1.027.063-2.054.093-3.082l-.122.013h0c-14.968.727-30.041.372-45.034.363l-6.668.01c-5.564,0-11.139-.025-16.694-.238l-2.082-.089c-4.159-.2-8.533-.258-12.845-.63q.824,6.642,1.521,13.294c.433,4.206-3.906,7.78-7.776,7.78-4.6,0-7.226-3.615-7.776-7.78-2.6-19.645-3.661-39.475-6.142-59.133-2.223-17.607-4.151-35.255-6.11-52.9l-.655-5.88Q313.5,360.678,303.463,264.3l-3.1-30.036c-3.131-30.274-6.28-60.55-8.936-90.868q-2.278-26-4.236-52.021c-.966-12.747-1.573-25.423-1.968-38.144a6.494,6.494,0,0,1-1.649-6.364c.4-1.411.873-2.815,1.368-4.216-.031-1.377-.063-2.753-.09-4.132a1.9,1.9,0,0,1,2.358-1.76c1.926-4.665,4.047-9.289,5.816-13.909C295.891,15.375,298.252,7.318,302.3.4ZM142.322,81.215c29.945-18.773,65.589-32.282,101.289-30.828.812.033,1.04,1.271.2,1.459C224.766,56.1,205.514,61.28,187.486,68.82A213.168,213.168,0,0,0,136.9,98.8a222.572,222.572,0,0,0-64.669,85.049c-8.469,19.392-14.406,39.865-19.59,60.345-5.486,21.675-10.007,43.583-13.766,65.623C31.452,353.355,27.13,397.37,24.83,441.461c-2.34,44.85-1.376,89.733-3.045,134.59-.288,7.772-11.393,7.62-11.957,0-3.782-51-1.687-102.813,1.811-153.777,3.145-45.815,8.636-91.533,17.479-136.611l.77-3.907c8.267-41.705,18.237-84.421,38.222-122.19C85.171,127.322,111.512,100.532,142.322,81.215ZM558.146,280.537a.473.473,0,0,1,.9,0c3.414,9.559,3.536,20.346,4.444,30.423l.071.774c.87,9.191,1.525,18.393,2.134,27.6l.227,3.454c2.445,37.571,5.5,75.1,10.107,112.475,4.589,37.233,10.794,74.206,17.5,111.106.748,4.108-1.071,8.293-5.378,9.477-3.8,1.043-8.67-1.3-9.473-5.38-4.166-21.18-7.535-42.389-10.54-63.752Q560.211,450.288,556.37,393.4q-1.911-28.556-2.37-57.146c-.144-8.852.086-17.725.557-26.568l.113-2.04C555.19,298.608,555.137,289.156,558.146,280.537ZM234.577,519.845a.473.473,0,0,1,.642.642c-5.8,9.427-13.642,17.555-21.224,25.566-7.926,8.374-15.655,17-23.741,25.211-5.842,5.93-15.24-3.636-9.074-9.078,8.669-7.649,17.73-14.919,26.554-22.4l3.859-3.272C218.827,530.4,226.276,524.343,234.577,519.845Zm275.395-4.721a.786.786,0,0,1,1.228-.947c4.677,3.8,8.868,8.343,13.384,12.358,4.473,3.977,9.112,7.687,13.878,11.3,4.786,3.633,9.676,7.121,14.7,10.421a143.892,143.892,0,0,0,12.822,7.2,8.081,8.081,0,0,1,5.388,3.132c2.368,2.974,2.619,8.582-.664,11.164l-.589.463h0c-3.832,3.013-8.382,3.38-12.154,0-4.212-3.773-8.194-7.926-12.239-11.914l-1.216-1.191c-4.347-4.227-8.588-8.59-12.586-13.15l-3.62-4.119C521.588,532.188,514.6,523.932,509.972,515.124ZM488.428,73.5c-.778-.515-.3-1.9.662-1.572l1.761.609c7.359,2.558,14.935,5.4,21.616,9.335a143.192,143.192,0,0,1,20.145,14.684c13.111,11.2,24.266,24.965,33.745,39.315,19.021,28.8,30.784,61.776,40.281,94.775a1044.163,1044.163,0,0,1,24.289,107.17c6.468,36.63,11.459,73.59,14.738,110.643q2.423,27.379,3.245,54.833c.281,9.422.272,18.838.193,28.264-.02,2.424,0,4.847.024,7.269l.092,7.27c.049,4.6.6,9.426-.493,13.916-1.757,7.228-13.7,5.88-13.311-1.508a41.692,41.692,0,0,1-.281-7.543c-.057-.329-.118-.662-.187-1a4.1,4.1,0,0,1,.354-2.658c.062-1.221.117-2.434.137-3.627.078-4.853.073-9.687-.061-14.538-.283-10.23-.689-20.46-1.1-30.684-.821-20.433-1.963-40.875-3.619-61.258-5.761-70.948-17.925-142.3-38.357-210.557-9.49-31.7-22.572-62.812-41.334-90.2a238.091,238.091,0,0,0-28.141-33.815C512.346,92.124,500.795,81.689,488.428,73.5ZM347.049,530.858l1.416,10.245q1.062,7.685,2.074,15.377c4.519-.619,9.143-.878,13.5-1.264,7.624-.675,15.3-1,22.947-1.319,15.812-.652,31.7-1.784,47.532-1.7.163,0,.316.012.469.024L435.769,532h0l-11.121-.018h0c-9.422-.015-18.843-.1-28.265-.176-8.486-.073-16.975-.085-25.459-.261l-3.636-.086C360.854,531.287,353.75,531.645,347.049,530.858ZM436.7,501.516c-.454.053-.915.1-1.406.119-2.2.093-4.423.028-6.627.047q-7.04.061-14.081.072-14.081,0-28.159.169c-9.662.117-19.318.284-28.981.3-4.682.008-9.349-.116-14.029-.247.757,6.654,1.548,13.3,2.422,19.935,7.268-.982,15.085-.487,22.188-.555l.922-.012c9.695-.166,19.4-.043,29.1-.032q14.963.018,29.927.126l8.2.068h0l.016-.413h0C436.426,514.576,436.581,508.047,436.7,501.516Zm-96.888-31.83c.909,7.854,1.762,15.721,2.631,23.585q.867-.134,1.759-.229c4.689-.49,9.367-.911,14.072-1.2,9.38-.581,18.758-.888,28.153-1.14q14.491-.389,28.987-.595c4.7-.066,9.386-.059,14.081-.027,2.2.015,4.428-.054,6.626.093.262.018.513.045.761.073l.165-11.808q.043-2.951.09-5.9c-7.257.448-14.634.277-21.885.279l-1.671,0c-9.111.042-18.226-.083-27.335-.273-9.4-.2-18.777-.5-28.158-1.105-3.8-.243-7.574-.567-11.354-.984l-1.891-.216C343.2,470.046,341.507,469.889,339.814,469.685Zm98.074-33.321c-17.476,1.388-34.859,1.967-52.382,2.14l-2.629.023c-15.485.118-31.1.756-46.618.346q1.392,12.073,2.786,24.145c2.223-.1,4.456-.1,6.628-.183,4.419-.159,8.824-.2,13.245-.209,9.109-.021,18.219.058,27.329.04,9.389-.02,18.776-.178,28.163-.355,7.611-.143,15.3-.716,22.933-.695l.544-25.252Zm.739-34.339a27.08,27.08,0,0,1-7.037.836l-6.765.337c-3.136.154-6.272.3-9.409.413q-15.683.574-31.367,1.073c-10.715.34-21.482.538-32.2.2-5.25-.166-10.455-.441-15.689-.879-1.294-.108-2.613-.179-3.934-.273q1.827,16,3.668,31.99c15.447-1.9,31.013-3.077,46.441-5.039l13.95-1.782c13.943-1.78,27.875-3.527,41.87-5l.471-21.877Zm.744-34.718c-2.971.734-6.358.7-9.211.878l-.529.037c-5.406.41-10.827.615-16.246.749-10.621.262-21.249.393-31.873.458l-6.389.04c-8.517.05-17.029.072-25.548-.127-5.465-.127-10.917-.395-16.377-.668-1.636-.083-3.308-.137-4.985-.221q1.712,15.144,3.445,30.285c1.794-.285,3.6-.5,5.315-.792,4.4-.744,8.793-1.338,13.226-1.869,9.6-1.151,19.251-1.979,28.9-2.678,9.9-.718,19.813-1.325,29.717-2.02l7.014-.495q3.507-.244,7.016-.463c3.995-.245,8.638.032,12.6-.838a5.785,5.785,0,0,1,3.457-.294l.471-21.98Zm.9-40.638a6.385,6.385,0,0,1-4.394,2.228c-9.536,1.237-19.318,1.436-28.935,2.02l-1.7.107c-9.93.655-19.865,1.168-29.8,1.7q-15.312.813-30.631,1.34c-4.337.151-8.7.169-13.04.113l-1.861-.028c-1.784-.03-3.652-.026-5.525-.087q1.554,14.161,3.144,28.318c1.909-.208,3.817-.366,5.669-.562,5.457-.577,10.908-1.148,16.377-1.579,10.364-.817,20.736-1.309,31.119-1.822,10.623-.526,21.253-.877,31.878-1.373,5.151-.241,10.3-.54,15.437-1.014,3.6-.331,7.876-1.557,11.631-1.107Q439.95,340.793,440.272,326.669Zm.838-36.4a4.184,4.184,0,0,1-.584.722c-4.2,4.15-9.373,3.83-14.937,4.265l-.341.028q-8.18.688-16.367,1.288c-10.912.788-21.845,1.339-32.773,1.831-11.184.5-22.439.849-33.633.621-7.169-.147-14.677-.121-21.989-.82q1.684,15.6,3.391,31.19c2.056-.388,4.125-.685,6.085-.993,4.939-.777,9.884-1.559,14.852-2.131q14.891-1.715,29.8-3.178c8.506-.825,17.009-1.663,25.522-2.417l5.109-.442c10.157-.855,20.442-2.264,30.631-2.473a5.589,5.589,0,0,1,4.54,2.323Q440.756,305.171,441.11,290.265Zm.705-29.471c-2.594.315-5.388.136-7.781.214q-9.077.3-18.156.56l-36.315,1.073h0c-12.364.364-24.772.638-37.141.463-5.441-.077-10.906-.086-16.345-.382l-1.812-.11c-2.238-.149-4.985-.17-7.668-.443l3.167,29.346h0c7.277-1.052,14.776-1.445,21.99-2.062l1.541-.136c10.641-.97,21.333-1.611,31.993-2.334,10.935-.741,21.855-1.64,32.775-2.56,5.458-.459,10.915-.917,16.369-1.419l.674-.066c5.152-.538,10-1.683,14.559,1.356a4.737,4.737,0,0,1,1.548,1.7Q441.511,273.4,441.815,260.794Zm.846-34.248c-22.116.891-44.236,1.566-66.369,1.863-12.458.167-24.9.049-37.357-.211-5.4-.113-10.848-.372-16.245-.786l-2.022-.163c-2.566-.216-5.262-.373-7.947-.631q1.664,15.134,3.3,30.274c2.641-.491,5.4-.717,7.714-1.014l.526-.07c5.75-.791,11.554-1.253,17.332-1.761,11.251-.992,22.558-1.63,33.839-2.173,11.552-.556,23.11-1.027,34.664-1.541l11.555-.517q2.888-.128,5.777-.251,4.128-.174,8.254-.341c1.357-.056,2.768-.24,4.127-.17L440.2,249c.178-.023.336-.041.48-.056a5.446,5.446,0,0,1,1.189-.692l.256-.1ZM309.1,194.091q1.541,13.625,3.045,27.255c3.155-.36,6.347-.56,9.359-.831,6.073-.545,12.175-1.022,18.266-1.3l12.175-.566c8.116-.375,16.231-.738,24.353-1.035q33.341-1.217,66.668-2.876.235-9.244.484-18.487a6.1,6.1,0,0,1-4.631,1.889c-23.321-.063-46.66.073-69.979-.311-11.672-.193-23.331-.475-34.99-1.074-5.7-.293-11.441-.89-17.1-1.675C314.327,194.744,311.685,194.505,309.1,194.091Zm-3.732-32.366q1.644,13.956,3.23,27.92c2.9-.517,5.888-.792,8.59-1.16,5.806-.79,11.647-1.419,17.495-1.749,11.378-.644,22.762-.968,34.156-1.21,23.317-.5,46.657-.492,69.979-.676a6.026,6.026,0,0,1,4.885,2.144q.243-8.716.509-17.432c-2.253-.238-4.486-.575-6.553-.719q-9.528-.666-19.063-1.213-19.9-1.142-39.818-1.989-19.917-.867-39.842-1.635l-5.809-.212A271.287,271.287,0,0,1,305.363,161.724Zm-4.177-35.042q1.712,14.135,3.386,28.275l.341,2.917h0c11.109-2.16,22.816-2.793,34.018-3.269q19.927-.848,39.842-.816,19.924.06,39.818.9,9.948.41,19.89.951c1.822.1,3.959.046,6.158.078.048-1.481.088-2.962.139-4.443q.3-9,.605-18c-4.483,2.3-10.311,3.232-14.816,4.214l-.514.114a171.189,171.189,0,0,1-22.627,3.417,262.577,262.577,0,0,1-44.874-.445l-2.609-.223c-13.082-1.135-26.643-2.573-39.325-5.811a70.641,70.641,0,0,1-17.7-6.829C302.357,127.39,301.776,127.046,301.186,126.682ZM427.143,14.7a.632.632,0,0,1,1.143-.149c1.761,3.348,2.417,7.366,3.64,10.953,1.316,3.856,2.544,7.741,4,11.551A158.093,158.093,0,0,0,446.8,60.033c4.226,7.3-7.606,12.512-10.716,4.519A140.222,140.222,0,0,1,428.64,39.06a100.9,100.9,0,0,1-1.7-12.884C426.747,22.464,426.225,18.317,427.143,14.7Z" transform="translate(-7.817 -0.211)"/></g><g transform="translate(202.581)"><path class="b" d="M21.978,24.837a.32.32,0,0,0,.017.146c0-.016.005-.024.009-.043-.01-.042-.018-.069-.027-.1" transform="translate(18.886 60.659)"/><path class="b" d="M22.109,25.07a1.4,1.4,0,0,0-.176-.133l0,.005c.061.04.119.086.179.128" transform="translate(18.752 60.956)"/><path class="b" d="M322.6,115.346c4.1-3.408,10.558-.27,9.169,5.34-1.511,6.11-8.057,10.285-13.461,12.8-5.562,2.583-10.98,3.081-17.048,2.8l-.075-.017h0c1.685,6.758,2.64,13.783,3.929,20.581q2.454,12.938,4.829,25.888c1.533,8.345,3.471,16.7,4.649,25.087,1.188,8.466,2.328,16.938,3.5,25.406,1.948,14.144,3.52,28.352,5.178,42.537l.79,6.714c1.66,14.211,3,28.439-.15,42.581-2.949,13.254-9.591,25.617-17.3,36.681a237.837,237.837,0,0,1-25.228,30.673c-17.848,18.174-39.857,32.729-65.664,35.429a73.091,73.091,0,0,1-33.427-4.172l-.694-.271c-10.575-4.177-23.525-11.328-26.277-23.064a8.429,8.429,0,0,1,12.227-9.4,35.4,35.4,0,0,1,7.75,5.66l.439.405a27.174,27.174,0,0,0,5.13,3.923,42.641,42.641,0,0,0,13.8,5.8,59.342,59.342,0,0,0,30.992-.859c21.587-6.328,38.334-22.841,52.68-39.4,7.79-8.991,15.184-18.423,20.886-28.9a69.713,69.713,0,0,0,8.579-35.048c-.187-14.115-2.137-28.286-3.417-42.334Q302.43,238.7,300.815,217.2c-.995-13.45-1.091-26.96-1.439-40.452l-.068-2.529c-.2-7.162-.346-14.327-.509-21.491-.161-7.143-.726-14.377.009-21.49a.471.471,0,0,1,.92-.125c.434,1.333.813,2.686,1.171,4.047a.681.681,0,0,1,.192-.105,35.175,35.175,0,0,0,12.7-8.418C317.2,123.275,318.977,118.355,322.6,115.346ZM62.429,15.268C65.416,3,78.858.254,88.8,6.165c4.781,2.842,8.609,6.941,13.075,10.2A57.091,57.091,0,0,0,116.4,24.041c10.287,3.65,21.138,4.976,32.009,5.024,26.461.116,52.38-7.323,78.88-6.493,20.5.642,42.269,6.7,57.142,21.533,8.012,7.988,13.175,18.258,15.945,29.161a153.076,153.076,0,0,1,3.02,15.522l.186,1.3a81.263,81.263,0,0,1,1.173,9.341c.058,2.762-.641,5.653-1.02,8.387-.8,5.763-9.721,5.107-11,0-2.919-11.627-1.7-23.626-5.265-35.213a47.42,47.42,0,0,0-18.18-25.4C231.805,21.28,183.74,42.986,142.444,40.97a101.71,101.71,0,0,1-29.855-5.53,77.686,77.686,0,0,1-14.194-6.73c-4.078-2.518-7.611-5.683-11.386-8.594l-1.665-1.266c-2.588-1.948-6.994-4.993-9.6-2.417-1.136,1.122-1.2,3.658-1.184,5.594l.013.875c.118,8.222,1.793,16.428-1.282,24.371-1.4,3.623-5.3,5.907-9.01,3.855l-.192-.11c-7.844-4.668-18.15,4.712-12.124,12.475l.188.235c3.39,4.122,1.583,11.38-4.485,11.362l-.219,0c-10.811-.338-15.608,13.179-6.289,19.084l.287.177c7.566,4.529.93,15.419-6.824,11.68.657.317-.485.313-1.139,1.19a3.139,3.139,0,0,0-.525,2.635c.453,3.224,3.287,5.941,5.583,7.981a47.787,47.787,0,0,0,18.342,9.783c26.686,7.8,54.063-1.742,80.064-7.508,27.107-6.011,57.722-8.432,81.362,8.624.281.2.035.653-.276.473-16.965-9.856-37.743-8.981-56.288-4.941-24.318,5.3-48.424,15.163-73.329,17.762a66.269,66.269,0,0,1,8.051,41.056c-1.286,9.722-5.154,18.156-9.722,26.7l-.872,1.629c-4.073,7.671-7.228,14.918-7.278,23.8-.049,8.829-13.17,10.691-15.395,2.085-5.05-19.545,13.346-34.939,20.852-51.056,6.415-13.778,6.613-29.841,1.421-43.948a104.55,104.55,0,0,1-17.723-.012,84.537,84.537,0,0,1-15.525-2.842l-2.054,8.64c-2.722,11.509-5.244,23.009-6.008,34.963a163.666,163.666,0,0,0,.323,26.373,196.241,196.241,0,0,0,3.892,22.254,9.336,9.336,0,0,1,1.677,6.749,26.739,26.739,0,0,1,18.362,18.8.511.511,0,0,1-.929.392c-6.037-10.02-21.581-13.707-31.414-7.087-9.39,6.32-13.094,19.08-7.779,29.181a26.156,26.156,0,0,0,12.286,11.614l1.075.5c2.8,1.326,5.372,2.771,7.174,5.434,2.337,3.454,2.416,7.106,2.195,11.053l-.1,1.6a22.511,22.511,0,0,0,.607,7.915l.179.566a7.743,7.743,0,0,0,.806,1.8c.113.18,1.177,1.224,1.524,1.6l.437.132h0l.489.02h0c.542.008,1.254-.227,1.021-.064l.064-.036c.206-.128.395-.264.554-.384l.3-.236a8.5,8.5,0,0,1,2.683-2.514l1.04-.463h0c2.7-2.852,7.327-1.354,9.263,1.488a11.6,11.6,0,0,1,2.2,6.17.6.6,0,0,1,1.009-.149l1.835,2.34c7.022,8.976,13.924,18.008,21.9,26.19a146.247,146.247,0,0,0,14.067,12.648c4.22,3.332,12.225,6.538,12.347,12.607a4.339,4.339,0,0,1-3.07,4.034c-5.568,2.176-12.448-5.225-16.469-8.826l-.328-.291a118.414,118.414,0,0,1-13.559-14.109c-8.051-9.834-14.783-21.152-17.75-33.6a10.352,10.352,0,0,1-2.885,6.311,17.635,17.635,0,0,1-9.251,5.321,19.575,19.575,0,0,1-20.568-7.8c-4.023-5.637-5.207-13.081-4.688-19.891l.064-.817a22.4,22.4,0,0,1,.448-3.949l-2.519-1.384h0a41.514,41.514,0,0,1-8.518-6.167c-10.323-9.521-15.5-24.994-10.783-38.534a34.522,34.522,0,0,1,17.1-19.671c-1.328-3.07-1.772-6.715-2.273-9.94l-.084-.533a148.694,148.694,0,0,1-1.832-16,144.794,144.794,0,0,1,1.68-29.976c2.551-16.054,7.832-33.079,17.513-46.546a50.745,50.745,0,0,1-19.43-13.08c-5.483-6.163-8.979-14.987-4.739-22.814a16.853,16.853,0,0,1,4.107-5,23.541,23.541,0,0,1-1.982-17.554A23.863,23.863,0,0,1,37.91,63.37a21.556,21.556,0,0,1,4.735-19.731c5-5.608,12.753-7.65,19.932-6.368C62.967,30.056,60.7,22.383,62.429,15.268ZM42.292,268.552c6.583-3.223,14.384-2.71,20.959.344l.446.212c7.179,3.482,16.686,11.619,14.4,20.272-1.336,5.061-6.956,6.789-11.315,4.6-3.641-1.826-4.471-5.089-6.3-8.367a26.557,26.557,0,0,0-4.763-5.995,46.075,46.075,0,0,0-13.435-9.179A1.1,1.1,0,0,1,42.292,268.552ZM208.154,93.639c-.617-.282-.169-1.248.452-1.072,16.541,4.725,31.963,15.332,41.178,30.055a3.166,3.166,0,0,1,0,3.266l-.3.4a2.38,2.38,0,0,1-1.634,1.083,3.393,3.393,0,0,1-3.652-1.486C235.12,111.855,223.489,100.656,208.154,93.639Zm110.732,2.779a3.242,3.242,0,0,1,5.857.766l.107.232c.4.908.218,1.093-.527.58a6.067,6.067,0,0,1,2.115,6.217c-3.045,13.144-17.926,22.53-30.9,21.238a.983.983,0,0,1-.26-1.92,35.053,35.053,0,0,0,12.984-9.334c3.462-3.916,4.919-8.4,6.781-13.127a6.492,6.492,0,0,1,3.317-3.752A5.382,5.382,0,0,0,318.886,96.418Zm-73.777-8.447.09.006a28.931,28.931,0,0,1,17.114,8.975c4.508,4.644,10.2,12.306,9.711,19.121-.323,4.518-6.744,7.1-9.139,2.477-1.43-2.759-1.754-5.783-2.755-8.7a35.766,35.766,0,0,0-3.706-7.594c-3.127-4.906-7.427-9.061-11.831-12.811a.879.879,0,0,1,.518-1.474Zm-170.973-2a2.009,2.009,0,0,1,1.939-3.333c9.915,2.511,19.734,5.565,30.042,5.869a96.662,96.662,0,0,0,15.369-.922l2.582-.343c3.977-.519,8.023-.927,11.954-.11,2.621.545,3.133,3.922,1.5,5.684-7.712,8.322-22.588,7.527-32.816,6.124C93.6,97.415,82.392,93.837,74.136,85.969ZM253.179,60.029a1.38,1.38,0,0,1,1.544-2.01c9.853,3.81,20.18,13.728,22.894,24.106a2.875,2.875,0,0,1-4.768,2.776c-3.781-3.792-6.451-8.272-9.647-12.534S256.289,64.344,253.179,60.029ZM91.737,64.663c-.79-.79,0-2.363,1.14-1.961A107.479,107.479,0,0,0,112.5,67.973c6.9,1.056,13.871.254,20.809.681,2.807.173,4.719,4.541,1.6,5.9C121.037,80.594,102.2,75.118,91.737,64.663Zm17.713-13.545c-1.1-.816-.475-3.054,1.025-2.429,6.109,2.545,12.287,3.17,18.843,2.908,2.422-.1,2.931,3.71.571,4.223A25.17,25.17,0,0,1,109.449,51.118Z" transform="translate(-11.62 -3.17)"/></g><g transform="translate(333.467 185.98)"><path class="b" d="M89.217,168.554a33.942,33.942,0,0,1-14.26-10.976,6.586,6.586,0,0,1-1.334-5.12,7.388,7.388,0,0,1,2.872-4.626,6.874,6.874,0,0,1,5.151-1.393A6.452,6.452,0,0,1,86,149.318l.257.355a22.471,22.471,0,0,0,8.232,6.91,18.545,18.545,0,0,0,10.189,1.792c6.856-.775,11.581-4.484,16.6-9.521.623-.636,1.246-1.292,1.872-1.958a2.943,2.943,0,0,1,1.553-1.2,3.34,3.34,0,0,1,2.142.031,3.4,3.4,0,0,1,1.685,1.278,3.124,3.124,0,0,1,.533,2.068A21.421,21.421,0,0,1,122,162.615a30.294,30.294,0,0,1-32.786,5.939Zm20.2-80.53c6.3,3.828,15.888,12.754,9.115,22.245-7.972,8.368-19.449-1.226-25.1-5.566-5.244-3.363-11.137,5.286-6.271,9.213,40.869,30.27,57.455-24.891,25.445-30.393C109.075,82.917,107.766,86.839,109.415,88.024ZM36.177,52.812c.7-8.637,13.845-10.6,15.153-2.052a35,35,0,0,1-3.655,21.582c-3.294,6.585-11.573,3.513-12.2-2.484C34.637,61.821,35.744,58.185,36.177,52.812ZM136.27,48.988c1.833-2.4,4.48-4.042,7.651-3.115,9.908,2.9,6.988,16.968,3.508,23.818-1.891,3.72-8,4.663-10.764,1.388-4.5-5.341-6.658-16.007-.935-21.268A7.23,7.23,0,0,1,136.27,48.988ZM47.535,15.019l1.565-.274C53.942,13.907,59.962,13.1,63.387,17c1.817,2.065,2.442,5.9,0,7.88-4.3,3.478-9.044,2.13-14.191,2.424a56.445,56.445,0,0,0-12.4,2.114c-8.964,2.563-16.267,7.242-23.923,12.379-1,.674-2.03-.611-1.551-1.551C15.738,31.583,24.3,24.469,32.881,20.134A53.324,53.324,0,0,1,47.535,15.019Zm79.7-3.879,1.2.245c13.036,2.726,29.973,8.171,36.147,20.981.235,1.811-.013,2.2-.215,2.453l-.067.084a1.687,1.687,0,0,1-1.084.762q-.327-.078-.66-.165a37.425,37.425,0,0,1-7.236-2.824l-2.35-1.158a64.746,64.746,0,0,0-8.392-3.578,98.813,98.813,0,0,0-19.118-4.223,7.843,7.843,0,0,1-3.834-1.456,5.762,5.762,0,0,1-2.145-3.268,5.862,5.862,0,0,1,.661-4.9,6.206,6.206,0,0,1,3.027-2.61A7.1,7.1,0,0,1,127.238,11.14Z" transform="translate(-11.197 -10.99)"/></g><g transform="translate(220.922 138.442)"><path class="b" d="M260.937-12.358c4.819-1.652,8.662,3.361,7.736,7.73-1.092,5.146-6.461,9.276-10.021,12.9-3.735,3.82-7.545,7.564-11.5,11.167a284.472,284.472,0,0,1-23.609,19.424l-2.521,1.848c-7.558,5.532-15.093,10.935-23.189,15.724q-6.578,3.878-13.3,7.5c-1.6.859-3.551,2.184-5.56,3.169,7.344,5.671,13,14.328,14.222,22.393,3.035,20.033-9.871,38.6-28.079,45.978a59.427,59.427,0,0,1-28.886,3.636c-9.871-1.127-19.875-4.046-26.286-12.135-5.694-7.181-7.745-16.345-8.153-25.345a45.011,45.011,0,0,1,.75-12.251c-3.927.033-7.853.017-11.746.058-9.621.092-19.259.134-28.887-.133-9.929-.284-19.808-.726-29.7-1.609-4.343-.393-8.662-1.035-12.981-1.652-4.193-.592-8.819-.817-12.738-2.535-.267-.108-.155-.492.075-.568,4.177-1.35,8.92-1.109,13.272-1.375l4.241-.257c3.533-.211,7.063-.405,10.606-.519,8.185-.269,16.363-.336,24.546-.476l3.507-.065c9.629-.192,19.258-.3,28.887-.609,3.993-.125,7.995-.359,12-.575a17.977,17.977,0,0,1,1.809-2.969,42.4,42.4,0,0,1,7.061-7.556A53.732,53.732,0,0,1,130.46,58.147c6.609-2.282,16.275-3.413,23.267-3.266s16.956,1.134,20.158,6.852c.333.592,6.428-.55,8.237-1.936q6.34-4.84,12.454-9.949c7.571-6.33,15.356-12.56,22.527-19.332,7.395-6.989,14.731-14.094,21.767-21.434,3.535-3.678,7.061-7.364,10.488-11.134C252.859-5.895,255.868-10.632,260.937-12.358Z" transform="translate(-6.338 12.681)"/></g></g></g></g></g></svg>
