<svg xmlns="http://www.w3.org/2000/svg" width="283.98" height="79.135" viewBox="0 0 283.98 79.135">
  <g id="Group_5" data-name="Group 5" transform="translate(-162.784 -152.6)">
    <path id="Path_13" data-name="Path 13" d="M42.84,3.451Q36.771,7.616,27.608,7.735q-2.38,0-4.938-.238t-4.76-.536a42.962,42.962,0,0,1-4.4-.833,20.671,20.671,0,0,1-3.273-1.011,2.492,2.492,0,0,1-1.012-.6,1.378,1.378,0,0,1-.417-1.309L9.52-4.76a2.582,2.582,0,0,1,.357-1.309q.238-.238,1.547.119a56.851,56.851,0,0,0,8.271,1.726,57.982,57.982,0,0,0,7.438.536q5.236,0,7.795-1.845a5.9,5.9,0,0,0,2.558-5.058,6.135,6.135,0,0,0-1.309-3.51,14.961,14.961,0,0,0-4.4-3.748q-3.213-1.9-6.664-3.868t-6.783-3.748a18.594,18.594,0,0,1-6.366-5.95A13.269,13.269,0,0,1,9.4-38.794a17.21,17.21,0,0,1,1.785-7.914,17.731,17.731,0,0,1,4.76-5.89,18.889,18.889,0,0,1,6.842-3.451A30.412,30.412,0,0,1,30.94-57.12q2.261,0,4.7.238t4.76.654a41.019,41.019,0,0,1,4.165.952,11.517,11.517,0,0,1,2.8,1.131q.6.238.654.535a2.473,2.473,0,0,1-.059.893l-.714,7.854q-.119,1.19-.714,1.487a2,2,0,0,1-1.666-.179A49.854,49.854,0,0,0,39.746-45.1a36.064,36.064,0,0,0-4.343-.654q-2.082-.178-3.748-.179-4.879,0-6.9,1.785a5.2,5.2,0,0,0-2.023,3.927q0,2.023,2.261,4.105A26.068,26.068,0,0,0,30.7-32.249q3.808,1.9,6.9,3.749a50.346,50.346,0,0,1,4.641,3.035,22.108,22.108,0,0,1,6.426,6.485,13.852,13.852,0,0,1,2.142,7.319Q50.813-2.38,42.84,3.451Zm69.734,1.19A51.026,51.026,0,0,1,103.708,6.9a39.472,39.472,0,0,1-7.556.6q-6.188,0-9.877-2.083A12.359,12.359,0,0,1,81.158.595a18.493,18.493,0,0,1-2.023-7.259q-.357-4.165-.357-11.3V-40.46H65.688a1.377,1.377,0,0,1-1.012-.417,1.377,1.377,0,0,1-.416-1.012v-9.4a1.377,1.377,0,0,1,.416-1.012,1.377,1.377,0,0,1,1.012-.417h13.09V-69.972a1.3,1.3,0,0,1,.476-1.011,1.584,1.584,0,0,1,1.071-.417h9.639a1.528,1.528,0,0,1,1.13.417,1.377,1.377,0,0,1,.417,1.011v17.255H111.5a1.377,1.377,0,0,1,1.011.417,1.377,1.377,0,0,1,.417,1.012v9.4a1.377,1.377,0,0,1-.417,1.012,1.377,1.377,0,0,1-1.011.417H91.511v23.2a80.531,80.531,0,0,0,.357,9.877,2.808,2.808,0,0,0,2.2,2.737,23.4,23.4,0,0,0,5.3.476,29.128,29.128,0,0,0,5.712-.595,48.5,48.5,0,0,0,5.831-1.547q.6-.238.833-.059a2.339,2.339,0,0,1,.476,1.13l.952,8.449A1.5,1.5,0,0,1,112.574,4.641ZM125.783,5.95a1.377,1.377,0,0,1-1.011-.417,1.528,1.528,0,0,1-.416-1.131V-4.879a1.377,1.377,0,0,1,.416-1.011,1.377,1.377,0,0,1,1.011-.417h7.5V-43.316h-9.758a1.377,1.377,0,0,1-1.012-.417,1.528,1.528,0,0,1-.416-1.13v-8.925a1.377,1.377,0,0,1,.416-1.012,1.377,1.377,0,0,1,1.012-.417h19.516a1.046,1.046,0,0,1,.773.3,1.046,1.046,0,0,1,.3.773V-44.03a26.148,26.148,0,0,1,2.559-4.344,24.071,24.071,0,0,1,2.975-3.332,22.266,22.266,0,0,1,3.689-2.737,22.184,22.184,0,0,1,6.128-2.2,26.088,26.088,0,0,1,9.937.238,19.035,19.035,0,0,1,8.033,3.689q.6.6.476,1.071l-.238.952L173.74-42.6a1.476,1.476,0,0,1-.774.952,1.531,1.531,0,0,1-1.368-.238,19.031,19.031,0,0,0-6.069-2.142,18.146,18.146,0,0,0-6.545,0,13.832,13.832,0,0,0-8.806,5.355,19.782,19.782,0,0,0-3.927,8.687,65.531,65.531,0,0,0-.714,10.353V-6.307h12.376a1.377,1.377,0,0,1,1.012.417,1.377,1.377,0,0,1,.417,1.011V4.4q0,1.547-1.428,1.547Z" transform="translate(154 224)" fill="#fff"/>
    <path id="Path_12" data-name="Path 12" d="M48.433-2.38a23.717,23.717,0,0,1-8.152,7.556A21.666,21.666,0,0,1,29.75,7.735a21.64,21.64,0,0,1-10.531-2.5,22.722,22.722,0,0,1-7.735-6.962,31.776,31.776,0,0,1-4.7-10.294A48.573,48.573,0,0,1,5.236-24.514,48.573,48.573,0,0,1,6.783-37.009a31.079,31.079,0,0,1,4.7-10.234,23.145,23.145,0,0,1,7.675-6.9,21.551,21.551,0,0,1,10.591-2.5,21.64,21.64,0,0,1,10.531,2.5,22.954,22.954,0,0,1,7.735,6.9,31.079,31.079,0,0,1,4.7,10.234,48.573,48.573,0,0,1,1.547,12.495,46.732,46.732,0,0,1-1.547,12.257A34.093,34.093,0,0,1,48.433-2.38ZM29.75-44.982A7.906,7.906,0,0,0,24.514-43.2,13.42,13.42,0,0,0,21-38.5a30.011,30.011,0,0,0-2.142,6.6,35.864,35.864,0,0,0-.774,7.378,35.584,35.584,0,0,0,.774,7.438A31.454,31.454,0,0,0,21-10.472a13.306,13.306,0,0,0,3.51,4.76A7.906,7.906,0,0,0,29.75-3.927a7.97,7.97,0,0,0,5.177-1.785,12.978,12.978,0,0,0,3.57-4.76,31.454,31.454,0,0,0,2.142-6.6,35.584,35.584,0,0,0,.773-7.437,35.017,35.017,0,0,0-.773-7.319A30.169,30.169,0,0,0,38.5-38.377a13.674,13.674,0,0,0-3.57-4.76A7.809,7.809,0,0,0,29.75-44.982Zm78.183,42.6a23.717,23.717,0,0,1-8.152,7.556A21.666,21.666,0,0,1,89.25,7.735a21.64,21.64,0,0,1-10.532-2.5,22.722,22.722,0,0,1-7.735-6.962,31.776,31.776,0,0,1-4.7-10.294,48.573,48.573,0,0,1-1.547-12.495,48.573,48.573,0,0,1,1.547-12.495,31.079,31.079,0,0,1,4.7-10.234,23.145,23.145,0,0,1,7.675-6.9,21.551,21.551,0,0,1,10.591-2.5,21.64,21.64,0,0,1,10.531,2.5,22.953,22.953,0,0,1,7.735,6.9,31.079,31.079,0,0,1,4.7,10.234,48.573,48.573,0,0,1,1.547,12.495,46.732,46.732,0,0,1-1.547,12.257A34.093,34.093,0,0,1,107.933-2.38ZM89.25-44.982A7.906,7.906,0,0,0,84.014-43.2a13.42,13.42,0,0,0-3.51,4.7,30.011,30.011,0,0,0-2.142,6.6,35.864,35.864,0,0,0-.773,7.378,35.584,35.584,0,0,0,.773,7.438,31.455,31.455,0,0,0,2.142,6.6,13.306,13.306,0,0,0,3.51,4.76A7.906,7.906,0,0,0,89.25-3.927a7.97,7.97,0,0,0,5.176-1.785A12.978,12.978,0,0,0,98-10.472a31.454,31.454,0,0,0,2.142-6.6,35.584,35.584,0,0,0,.773-7.437,35.017,35.017,0,0,0-.773-7.319A30.169,30.169,0,0,0,98-38.377a13.674,13.674,0,0,0-3.57-4.76A7.809,7.809,0,0,0,89.25-44.982Z" transform="translate(333 224)" fill="#64ad52"/>
  </g>
</svg>
